<svg xmlns="http://www.w3.org/2000/svg" xmlns:xlink="http://www.w3.org/1999/xlink" xmlns:lucid="lucid" width="2129.35" height="1042"><g transform="translate(-939 13160.99999999255)" lucid:page-tab-id="0_0"><path d="M960-13134a6 6 0 0 1 6-6h287.72a6 6 0 0 1 6 6v88a6 6 0 0 1-6 6H966a6 6 0 0 1-6-6z" stroke="#000" stroke-width="2" fill="#dedeff"/><use xlink:href="#a" transform="matrix(1,0,0,1,960,-13139.99999999255) translate(56.65647569444443 43.50043402777778)"/><use xlink:href="#b" transform="matrix(1,0,0,1,960,-13139.99999999255) translate(150.005 43.50043402777778)"/><use xlink:href="#c" transform="matrix(1,0,0,1,960,-13139.99999999255) translate(89.995234375 68.67404513888889)"/><use xlink:href="#d" transform="matrix(1,0,0,1,960,-13139.99999999255) translate(170.00825520833334 68.67404513888889)"/><path d="M1109.86-13038.5v5m0 5.02v10.03m0 5v10.04m0 5v10.03m0 5v10.03m0 5.02v10.02m0 5v10.04m0 5v10.04m0 5v10.03m0 5.03v10.02m0 5v10.04m0 5v10.03m0 5v10.03m0 5.02v10.02m0 5.02v10.02m0 5v10.04m0 5v10.04m0 5v10.03m0 5.02v10.02m0 5v10.03m0 5v10.04m0 5v10.03m0 5.02v10.02m0 5v10.04m0 5v10.04m0 5v10.04m0 5v10.03m0 5v10.03m0 5v10.04m0 5v10.04m0 5.02v10.02m0 5.02v10.02m0 5v10.04m0 5v10.04m0 5v10.04m0 5v10.03m0 5.02v10.02m0 5v10.04m0 5.02v10.03m0 5v10.03m0 5.02v10.02m0 5v10.04m0 5v10.04m0 5v10.03m0 5.02v10.02m0 5.02v10m0 5.02v10.03m0 5v10.04m0 5v10.02m0 5.02v10.02m0 5v10.04m0 5v10.04m0 5v10.03m0 5.02v5" stroke="#000" fill="none"/><path d="M1110.33-13038.5h-.95v-.5h.95zM1110.33-12241h-.95v-.5h.95z" stroke="#000" stroke-width=".05"/><path d="M1439.72-13038.5v5m0 5.02v10.03m0 5v10.04m0 5v10.03m0 5v10.03m0 5.02v10.02m0 5v10.04m0 5v10.04m0 5v10.03m0 5.03v10.02m0 5v10.04m0 5v10.03m0 5v10.03m0 5.02v10.02m0 5.02v10.02m0 5v10.04m0 5v10.04m0 5v10.03m0 5.02v10.02m0 5v10.03m0 5v10.04m0 5v10.03m0 5.02v10.02m0 5v10.04m0 5v10.04m0 5v10.04m0 5v10.03m0 5v10.03m0 5v10.04m0 5v10.04m0 5.02v10.02m0 5.02v10.02m0 5v10.04m0 5v10.04m0 5v10.04m0 5v10.03m0 5.02v10.02m0 5v10.04m0 5.02v10.03m0 5v10.03m0 5.02v10.02m0 5v10.04m0 5v10.04m0 5v10.03m0 5.02v10.02m0 5.02v10m0 5.02v10.03m0 5v10.04m0 5v10.02m0 5.02v10.02m0 5v10.04m0 5v10.04m0 5v10.03m0 5.02v5" stroke="#000" fill="none"/><path d="M1440.2-13038.5h-.96v-.5h.95zM1440.2-12241h-.96v-.5h.95z" stroke="#000" stroke-width=".05"/><path d="M1751.7-13038.5v5m0 5.02v10.03m0 5v10.04m0 5v10.03m0 5v10.03m0 5.02v10.02m0 5v10.04m0 5v10.04m0 5v10.03m0 5.03v10.02m0 5v10.04m0 5v10.03m0 5v10.03m0 5.02v10.02m0 5.02v10.02m0 5v10.04m0 5v10.04m0 5v10.03m0 5.02v10.02m0 5v10.03m0 5v10.04m0 5v10.03m0 5.02v10.02m0 5v10.04m0 5v10.04m0 5v10.04m0 5v10.03m0 5v10.03m0 5v10.04m0 5v10.04m0 5.02v10.02m0 5.02v10.02m0 5v10.04m0 5v10.04m0 5v10.04m0 5v10.03m0 5.02v10.02m0 5v10.04m0 5.02v10.03m0 5v10.03m0 5.02v10.02m0 5v10.04m0 5v10.04m0 5v10.03m0 5.02v10.02m0 5.02v10m0 5.02v10.03m0 5v10.04m0 5v10.02m0 5.02v10.02m0 5v10.04m0 5v10.04m0 5v10.03m0 5.02v5" stroke="#000" fill="none"/><path d="M1752.18-13038.5h-.95v-.5h.95zM1752.18-12241h-.95v-.5h.95z" stroke="#000" stroke-width=".05"/><path d="M2109.75-13038.5v5m0 5.02v10.03m0 5v10.04m0 5v10.03m0 5v10.03m0 5.02v10.02m0 5v10.04m0 5v10.04m0 5v10.03m0 5.03v10.02m0 5v10.04m0 5v10.03m0 5v10.03m0 5.02v10.02m0 5.02v10.02m0 5v10.04m0 5v10.04m0 5v10.03m0 5.02v10.02m0 5v10.03m0 5v10.04m0 5v10.03m0 5.02v10.02m0 5v10.04m0 5v10.04m0 5v10.04m0 5v10.03m0 5v10.03m0 5v10.04m0 5v10.04m0 5.02v10.02m0 5.02v10.02m0 5v10.04m0 5v10.04m0 5v10.04m0 5v10.03m0 5.02v10.02m0 5v10.04m0 5.02v10.03m0 5v10.03m0 5.02v10.02m0 5v10.04m0 5v10.04m0 5v10.03m0 5.02v10.02m0 5.02v10m0 5.02v10.03m0 5v10.04m0 5v10.02m0 5.02v10.02m0 5v10.04m0 5v10.04m0 5v10.03m0 5.02v5" stroke="#000" fill="none"/><path d="M2110.23-13038.5h-.95v-.5h.95zM2110.23-12241h-.95v-.5h.95z" stroke="#000" stroke-width=".05"/><path d="M2448.45-13038.5v5m0 5.02v10.03m0 5v10.04m0 5v10.03m0 5v10.03m0 5.02v10.02m0 5v10.04m0 5v10.04m0 5v10.03m0 5.03v10.02m0 5v10.04m0 5v10.03m0 5v10.03m0 5.02v10.02m0 5.02v10.02m0 5v10.04m0 5v10.04m0 5v10.03m0 5.02v10.02m0 5v10.03m0 5v10.04m0 5v10.03m0 5.02v10.02m0 5v10.04m0 5v10.04m0 5v10.04m0 5v10.03m0 5v10.03m0 5v10.04m0 5v10.04m0 5.02v10.02m0 5.02v10.02m0 5v10.04m0 5v10.04m0 5v10.04m0 5v10.03m0 5.02v10.02m0 5v10.04m0 5.02v10.03m0 5v10.03m0 5.02v10.02m0 5v10.04m0 5v10.04m0 5v10.03m0 5.02v10.02m0 5.02v10m0 5.02v10.03m0 5v10.04m0 5v10.02m0 5.02v10.02m0 5v10.04m0 5v10.04m0 5v10.03m0 5.02v5" stroke="#000" fill="none"/><path d="M2448.93-13038.5h-.95v-.5h.95zM2448.93-12241h-.95v-.5h.95z" stroke="#000" stroke-width=".05"/><path d="M2864.22-13038.5v5m0 5.02v10.03m0 5v10.04m0 5v10.03m0 5v10.03m0 5.02v10.02m0 5v10.04m0 5v10.04m0 5v10.03m0 5.03v10.02m0 5v10.04m0 5v10.03m0 5v10.03m0 5.02v10.02m0 5.02v10.02m0 5v10.04m0 5v10.04m0 5v10.03m0 5.02v10.02m0 5v10.03m0 5v10.04m0 5v10.03m0 5.02v10.02m0 5v10.04m0 5v10.04m0 5v10.04m0 5v10.03m0 5v10.03m0 5v10.04m0 5v10.04m0 5.02v10.02m0 5.02v10.02m0 5v10.04m0 5v10.04m0 5v10.04m0 5v10.03m0 5.02v10.02m0 5v10.04m0 5.02v10.03m0 5v10.03m0 5.02v10.02m0 5v10.04m0 5v10.04m0 5v10.03m0 5.02v10.02m0 5.02v10m0 5.02v10.03m0 5v10.04m0 5v10.02m0 5.02v10.02m0 5v10.04m0 5v10.04m0 5v10.03m0 5.02v5" stroke="#000" fill="none"/><path d="M2864.7-13038.5h-.96v-.5h.95zM2864.7-12241h-.96v-.5h.95z" stroke="#000" stroke-width=".05"/><path d="M960-12234a6 6 0 0 1 6-6h287.72a6 6 0 0 1 6 6v88a6 6 0 0 1-6 6H966a6 6 0 0 1-6-6z" stroke="#000" stroke-width="2" fill="#dedeff"/><use xlink:href="#a" transform="matrix(1,0,0,1,960,-12239.99999999255) translate(56.65647569444443 43.50043402777778)"/><use xlink:href="#b" transform="matrix(1,0,0,1,960,-12239.99999999255) translate(150.005 43.50043402777778)"/><use xlink:href="#c" transform="matrix(1,0,0,1,960,-12239.99999999255) translate(89.995234375 68.67404513888889)"/><use xlink:href="#d" transform="matrix(1,0,0,1,960,-12239.99999999255) translate(170.00825520833334 68.67404513888889)"/><path d="M1379.72-13134a6 6 0 0 1 6-6h108a6 6 0 0 1 6 6v88a6 6 0 0 1-6 6h-108a6 6 0 0 1-6-6z" stroke="#000" stroke-width="2" fill="#dedeff"/><use xlink:href="#e" transform="matrix(1,0,0,1,1379.716049382716,-13139.99999999255) translate(33.33399305555556 56.00043402777778)"/><path d="M1379.72-12234a6 6 0 0 1 6-6h108a6 6 0 0 1 6 6v88a6 6 0 0 1-6 6h-108a6 6 0 0 1-6-6z" stroke="#000" stroke-width="2" fill="#dedeff"/><use xlink:href="#e" transform="matrix(1,0,0,1,1379.716049382716,-12239.99999999255) translate(33.33399305555556 56.00043402777778)"/><path d="M1619.72-13134a6 6 0 0 1 6-6h251.97a6 6 0 0 1 6 6v88a6 6 0 0 1-6 6H1625.7a6 6 0 0 1-6-6z" stroke="#000" stroke-width="2" fill="#dedeff"/><use xlink:href="#f" transform="matrix(1,0,0,1,1619.716049382716,-13139.99999999255) translate(78.6629861111111 43.50043402777778)"/><use xlink:href="#g" transform="matrix(1,0,0,1,1619.716049382716,-13139.99999999255) translate(91.99848958333332 68.67404513888889)"/><path d="M1619.72-12234a6 6 0 0 1 6-6h251.97a6 6 0 0 1 6 6v88a6 6 0 0 1-6 6H1625.7a6 6 0 0 1-6-6z" stroke="#000" stroke-width="2" fill="#dedeff"/><use xlink:href="#f" transform="matrix(1,0,0,1,1619.716049382716,-12239.99999999255) translate(78.6629861111111 43.50043402777778)"/><use xlink:href="#g" transform="matrix(1,0,0,1,1619.716049382716,-12239.99999999255) translate(91.99848958333332 68.67404513888889)"/><path d="M2003.7-13134a6 6 0 0 1 6-6h200.12a6 6 0 0 1 6 6v88a6 6 0 0 1-6 6h-200.13a6 6 0 0 1-6-6z" stroke="#000" stroke-width="2" fill="#dedeff"/><use xlink:href="#h" transform="matrix(1,0,0,1,2003.6913580246917,-13139.99999999255) translate(5.988723958333319 43.50043402777778)"/><use xlink:href="#i" transform="matrix(1,0,0,1,2003.6913580246917,-13139.99999999255) translate(112.67275173611112 43.50043402777778)"/><use xlink:href="#j" transform="matrix(1,0,0,1,2003.6913580246917,-13139.99999999255) translate(72.66624131944444 68.67404513888889)"/><path d="M2003.7-12234a6 6 0 0 1 6-6h200.12a6 6 0 0 1 6 6v88a6 6 0 0 1-6 6h-200.13a6 6 0 0 1-6-6z" stroke="#000" stroke-width="2" fill="#dedeff"/><use xlink:href="#h" transform="matrix(1,0,0,1,2003.6913580246917,-12239.99999999255) translate(5.988723958333319 43.50043402777778)"/><use xlink:href="#i" transform="matrix(1,0,0,1,2003.6913580246917,-12239.99999999255) translate(112.67275173611112 43.50043402777778)"/><use xlink:href="#j" transform="matrix(1,0,0,1,2003.6913580246917,-12239.99999999255) translate(72.66624131944444 68.67404513888889)"/><path d="M2335.8-13134a6 6 0 0 1 6-6h213.3a6 6 0 0 1 6 6v88a6 6 0 0 1-6 6H2341.8a6 6 0 0 1-6-6z" stroke="#000" stroke-width="2" fill="#dedeff"/><use xlink:href="#k" transform="matrix(1,0,0,1,2335.814814814815,-13139.99999999255) translate(12.488723958333333 56.00043402777778)"/><use xlink:href="#l" transform="matrix(1,0,0,1,2335.814814814815,-13139.99999999255) translate(65.83073784722222 56.00043402777778)"/><use xlink:href="#m" transform="matrix(1,0,0,1,2335.814814814815,-13139.99999999255) translate(119.1727517361111 56.00043402777778)"/><path d="M2335.8-12234a6 6 0 0 1 6-6h213.3a6 6 0 0 1 6 6v88a6 6 0 0 1-6 6H2341.8a6 6 0 0 1-6-6z" stroke="#000" stroke-width="2" fill="#dedeff"/><use xlink:href="#k" transform="matrix(1,0,0,1,2335.814814814815,-12239.99999999255) translate(12.488723958333333 56.00043402777778)"/><use xlink:href="#l" transform="matrix(1,0,0,1,2335.814814814815,-12239.99999999255) translate(65.83073784722222 56.00043402777778)"/><use xlink:href="#m" transform="matrix(1,0,0,1,2335.814814814815,-12239.99999999255) translate(119.1727517361111 56.00043402777778)"/><path d="M2681.1-13134a6 6 0 0 1 6-6h354.25a6 6 0 0 1 6 6v88a6 6 0 0 1-6 6H2687.1a6 6 0 0 1-6-6z" stroke="#000" stroke-width="2" fill="#dedeff"/><use xlink:href="#n" transform="matrix(1,0,0,1,2681.0864197530864,-13139.99999999255) translate(16.311206597222174 43.50043402777778)"/><use xlink:href="#o" transform="matrix(1,0,0,1,2681.0864197530864,-13139.99999999255) translate(82.9887239583333 43.50043402777778)"/><use xlink:href="#p" transform="matrix(1,0,0,1,2681.0864197530864,-13139.99999999255) translate(203.0082552083333 43.50043402777778)"/><use xlink:href="#q" transform="matrix(1,0,0,1,2681.0864197530864,-13139.99999999255) translate(149.66624131944442 68.67404513888889)"/><path d="M2681.1-12234a6 6 0 0 1 6-6h354.25a6 6 0 0 1 6 6v88a6 6 0 0 1-6 6H2687.1a6 6 0 0 1-6-6z" stroke="#000" stroke-width="2" fill="#dedeff"/><use xlink:href="#n" transform="matrix(1,0,0,1,2681.0864197530864,-12239.99999999255) translate(16.311206597222174 43.50043402777778)"/><use xlink:href="#o" transform="matrix(1,0,0,1,2681.0864197530864,-12239.99999999255) translate(82.9887239583333 43.50043402777778)"/><use xlink:href="#p" transform="matrix(1,0,0,1,2681.0864197530864,-12239.99999999255) translate(203.0082552083333 43.50043402777778)"/><use xlink:href="#q" transform="matrix(1,0,0,1,2681.0864197530864,-12239.99999999255) translate(149.66624131944442 68.67404513888889)"/><path d="M1089.86-12914a6 6 0 0 1 6-6h28a6 6 0 0 1 6 6v606.78a6 6 0 0 1-6 6h-28a6 6 0 0 1-6-6zM1419.72-12914a6 6 0 0 1 6-6h28a6 6 0 0 1 6 6v528a6 6 0 0 1-6 6h-28a6 6 0 0 1-6-6zM1731.7-12894a6 6 0 0 1 6-6h28a6 6 0 0 1 6 6v468a6 6 0 0 1-6 6h-28a6 6 0 0 1-6-6zM2089.75-12854a6 6 0 0 1 6-6h28a6 6 0 0 1 6 6v408a6 6 0 0 1-6 6h-28a6 6 0 0 1-6-6zM2844.22-12714a6 6 0 0 1 6-6h28a6 6 0 0 1 6 6v168a6 6 0 0 1-6 6h-28a6 6 0 0 1-6-6z" stroke="#000" stroke-width="2" fill="#dedeff"/><path d="M1079.86-13014a6 6 0 0 1 6-6H1514a6 6 0 0 1 6 6v11.78a14.48 14.48 0 0 1-4.24 10.24l-1.52 1.5a14.48 14.48 0 0 1-10.24 4.26h-418.14a6 6 0 0 1-6-6z" fill="#dedeff"/><path d="M1520-13020v23.78l-10 10h-430.14" stroke="#000" stroke-width="2" fill="none"/><path d="M1079.86-13014a6 6 0 0 1 6-6h1802.36a6 6 0 0 1 6 6v728a6 6 0 0 1-6 6H1085.86a6 6 0 0 1-6-6z" stroke="#000" stroke-width="2" fill="none"/><use xlink:href="#r" transform="matrix(1,0,0,1,1087.858024691358,-13019.99999999255) translate(0 22.91362847222222)"/><use xlink:href="#s" transform="matrix(1,0,0,1,1087.858024691358,-13019.99999999255) translate(66.67751736111111 22.91362847222222)"/><use xlink:href="#t" transform="matrix(1,0,0,1,1087.858024691358,-13019.99999999255) translate(106.68402777777777 22.91362847222222)"/><use xlink:href="#u" transform="matrix(1,0,0,1,1087.858024691358,-13019.99999999255) translate(226.7035590277778 22.91362847222222)"/><use xlink:href="#v" transform="matrix(1,0,0,1,1087.858024691358,-13019.99999999255) translate(293.3810763888889 22.91362847222222)"/><path d="M2432.82-12814a6 6 0 0 1 6-6h28a6 6 0 0 1 6 6v328a6 6 0 0 1-6 6h-28a6 6 0 0 1-6-6z" stroke="#000" stroke-width="2" fill="#dedeff"/><path d="M1130.2-12917.83h273.3" stroke="#000" fill="none"/><path d="M1130.2-12917.35h-.2l-.48-.77-.16-.18h.85z" stroke="#000" stroke-width=".05"/><path d="M1418.26-12917.83l-14.27 4.63v-9.27z" stroke="#000"/><use xlink:href="#w" transform="matrix(1,0,0,1,1226.793421837772,-12941.96255182384) translate(0 14.795351605473048)"/><use xlink:href="#x" transform="matrix(1,0,0,1,1226.793421837772,-12941.96255182384) translate(53.32400915872838 14.795351605473048)"/><path d="M1461.22-12880.23h253.1" stroke="#000" fill="none"/><path d="M1461.23-12879.75h-.5v-.95h.5z" stroke="#000" stroke-width=".05"/><path d="M1729.1-12880.23l-14.28 4.64v-9.26z" stroke="#000"/><use xlink:href="#y" transform="matrix(1,0,0,1,1526.3886212978668,-12904.358871242046) translate(0 14.795351605473048)"/><use xlink:href="#x" transform="matrix(1,0,0,1,1526.3886212978668,-12904.358871242046) translate(95.98321648571108 14.795351605473048)"/><path d="M1773.2-12851.25h299.17" stroke="#000" fill="none"/><path d="M1773.22-12850.78h-.52v-.95h.52z" stroke="#000" stroke-width=".05"/><path d="M2087.14-12851.25l-14.27 4.63v-9.27z" stroke="#000"/><use xlink:href="#z" transform="matrix(1,0,0,1,1808.0831289001346,-12875.385734872747) translate(0 14.795351605473048)"/><use xlink:href="#A" transform="matrix(1,0,0,1,1808.0831289001346,-12875.385734872747) translate(85.3184146539654 14.795351605473048)"/><use xlink:href="#B" transform="matrix(1,0,0,1,1808.0831289001346,-12875.385734872747) translate(170.6368293079308 14.795351605473048)"/><path d="M2131.25-12760.56h284.18" stroke="#000" fill="none"/><path d="M2131.27-12760.08h-.52v-.95h.52z" stroke="#000" stroke-width=".05"/><path d="M2430.2-12760.56l-14.27 4.64v-9.27z" stroke="#000"/><use xlink:href="#C" transform="matrix(1,0,0,1,2169.304859218707,-12784.687214631533) translate(0 14.795351605473048)"/><use xlink:href="#D" transform="matrix(1,0,0,1,2169.304859218707,-12784.687214631533) translate(53.32400915872838 14.795351605473048)"/><use xlink:href="#E" transform="matrix(1,0,0,1,2169.304859218707,-12784.687214631533) translate(85.3184146539654 14.795351605473048)"/><path d="M2514.32-12708.54h312.5M2514.33-12708.54h-.5" stroke="#000" fill="none"/><path d="M2841.6-12708.54l-14.27 4.63v-9.28z" stroke="#000"/><use xlink:href="#F" transform="matrix(1,0,0,1,2545.206564183033,-12732.674100772047) translate(0 14.795351605473048)"/><use xlink:href="#G" transform="matrix(1,0,0,1,2545.206564183033,-12732.674100772047) translate(85.3184146539654 14.795351605473048)"/><use xlink:href="#H" transform="matrix(1,0,0,1,2545.206564183033,-12732.674100772047) translate(159.97202747618513 14.795351605473048)"/><path d="M2842.72-12546.27H2530.2" stroke="#000" fill="none"/><path d="M2843.22-12545.96v.16h-.52v-.95h.52z" stroke="#000" stroke-width=".05"/><path d="M2515.43-12546.27l14.27-4.64v9.26z" stroke="#000"/><g><use xlink:href="#I" transform="matrix(1,0,0,1,2566.5363822604468,-12570.402048642329) translate(0 14.795351605473048)"/><use xlink:href="#G" transform="matrix(1,0,0,1,2566.5363822604468,-12570.402048642329) translate(74.65361282221973 14.795351605473048)"/><use xlink:href="#J" transform="matrix(1,0,0,1,2566.5363822604468,-12570.402048642329) translate(149.30722564443946 14.795351605473048)"/></g><path d="M2431.32-12488.46h-284.18" stroke="#000" fill="none"/><path d="M2431.82-12488h-.52v-.93h.52z" stroke="#000" stroke-width=".05"/><path d="M2132.37-12488.46l14.27-4.64v9.28z" stroke="#000"/><g><use xlink:href="#I" transform="matrix(1,0,0,1,2153.3077312941145,-12512.591654102911) translate(0 14.795351605473048)"/><use xlink:href="#K" transform="matrix(1,0,0,1,2153.3077312941145,-12512.591654102911) translate(74.65361282221973 14.795351605473048)"/><use xlink:href="#J" transform="matrix(1,0,0,1,2153.3077312941145,-12512.591654102911) translate(181.3016311396765 14.795351605473048)"/></g><path d="M2088.34-12444.9h-5m-4.98 0h-9.97m-5 0h-9.98m-4.98 0h-9.98m-5 0h-9.96m-5 0h-9.96m-5 0h-9.97m-4.98 0h-10m-4.98 0h-9.97m-5 0h-9.96m-5 0h-9.98m-4.98 0h-9.98m-4.98 0h-9.98m-5 0h-9.96m-5 0h-9.96m-5 0h-9.97m-4.98 0h-9.97m-5 0H1829m-5 0h-9.97m-5 0h-9.97m-4.98 0h-5" stroke="#000" fill="none"/><path d="M2088.84-12444.9l.1.47h-.62v-.95h.48z" stroke="#000" stroke-width=".05"/><path d="M1774.32-12444.9l14.27-4.64v9.27z" stroke="#000"/><g><use xlink:href="#w" transform="matrix(1,0,0,1,1840.1191825372127,-12469.036586165834) translate(0 14.795351605473048)"/><use xlink:href="#L" transform="matrix(1,0,0,1,1840.1191825372127,-12469.036586165834) translate(53.32400915872838 14.795351605473048)"/><use xlink:href="#M" transform="matrix(1,0,0,1,1840.1191825372127,-12469.036586165834) translate(138.64242381269378 14.795351605473048)"/></g><path d="M1730.3-12424.9h-253.2" stroke="#000" fill="none"/><path d="M1730.8-12424.9l.1.46h-.63v-.95h.48z" stroke="#000" stroke-width=".05"/><path d="M1462.33-12424.9l14.27-4.65v9.27z" stroke="#000"/><g><use xlink:href="#y" transform="matrix(1,0,0,1,1510.432722123831,-12449.045257205951) translate(0 14.795351605473048)"/><use xlink:href="#N" transform="matrix(1,0,0,1,1510.432722123831,-12449.045257205951) translate(95.98321648571108 14.795351605473048)"/></g><path d="M1419.38-12382.17h-272.14" stroke="#000" fill="none"/><path d="M1419.6-12382.64l.45.76.16.2h-.84v-.96z" stroke="#000" stroke-width=".05"/><path d="M1132.48-12382.17l14.26-4.63v9.27z" stroke="#000"/><g><use xlink:href="#O" transform="matrix(1,0,0,1,1195.381524638922,-12406.29958803207) translate(0 14.795351605473048)"/><use xlink:href="#N" transform="matrix(1,0,0,1,1195.381524638922,-12406.29958803207) translate(85.3184146539654 14.795351605473048)"/></g><path d="M1131.36-12339.78h98.5v32.6h-82.62" stroke="#000" fill="none"/><path d="M1131.37-12339.3h-.5v-.95h.5z" stroke="#000" stroke-width=".05"/><path d="M1132.48-12307.18l14.26-4.64v9.27z" stroke="#000"/><g><use xlink:href="#P" transform="matrix(1,0,0,1,1237.858024691358,-12333.54478803674) translate(0 14.795351605473048)"/><use xlink:href="#Q" transform="matrix(1,0,0,1,1237.858024691358,-12333.54478803674) translate(95.98321648571108 14.795351605473048)"/></g><path d="M2474.32-12741.66h33.5a6 6 0 0 1 6 6v209.66a6 6 0 0 1-6 6h-31.44" stroke="#3a414a" fill="none"/><path d="M2474.33-12741.18h-.5v-.95h.5z" stroke="#3a414a" stroke-width=".05" fill="#3a414a"/><path d="M2461.62-12520l14.26-4.64v9.27z" stroke="#3a414a" fill="#3a414a"/><g><use xlink:href="#R" transform="matrix(1,0,0,1,2521.817453341996,-12633.990516035834) translate(0 14.800347222222223)"/><use xlink:href="#S" transform="matrix(1,0,0,1,2521.817453341996,-12633.990516035834) translate(42.673611111111114 14.800347222222223)"/></g><path d="M2131.25-12807.16h284.18" stroke="#3a414a" fill="none"/><path d="M2131.27-12806.7h-.52v-.94h.52z" stroke="#3a414a" stroke-width=".05" fill="#3a414a"/><path d="M2430.2-12807.16l-14.27 4.63v-9.27z" stroke="#3a414a" fill="#3a414a"/><g><use xlink:href="#T" transform="matrix(1,0,0,1,2163.932835079574,-12831.30297381193) translate(0 14.800347222222223)"/><use xlink:href="#U" transform="matrix(1,0,0,1,2163.932835079574,-12831.30297381193) translate(42.673611111111114 14.800347222222223)"/><use xlink:href="#V" transform="matrix(1,0,0,1,2163.932835079574,-12831.30297381193) translate(117.35243055555557 14.800347222222223)"/><use xlink:href="#W" transform="matrix(1,0,0,1,2163.932835079574,-12831.30297381193) translate(160.02604166666669 14.800347222222223)"/></g><defs><path d="M622-1349c296 4 497 117 497 404 0 282-193 424-485 431H353V0H162v-1349h460zm-15 684c195-3 320-88 320-277 0-184-129-255-328-254H353v531h254" id="X"/><path d="M168 279c222 39 310-114 368-290L66-1082h192c120 299 249 590 362 896 115-301 235-597 351-896h190L705 0c-65 164-130 320-275 396-67 36-177 35-262 18V279" id="Y"/><path d="M682 16c-209 0-323-80-324-285v-671H190v-142h170l58-282h120v282h432v142H538v652c2 114 60 155 182 155 106 0 209-16 297-34v137C921-4 806 16 682 16" id="Z"/><path d="M648-963c-190 6-283 138-283 336V0H185v-1484h181c-2 197 6 404-9 587h3c62-120 159-205 339-205 242 0 351 135 350 381V0H868v-695c1-168-57-273-220-268" id="aa"/><path d="M615-1102c343 0 484 203 482 560-1 347-147 562-488 562-336 0-475-219-479-562-4-349 156-560 485-560zm-8 989c240 0 301-180 301-429 0-245-55-427-290-427-236 0-299 181-299 427 0 243 61 429 288 429" id="ab"/><path d="M706-1102c241 0 344 136 343 381V0H868v-695c1-168-57-273-220-268-190 6-283 138-283 336V0H185c-3-360 6-732-6-1082h170c4 54 7 126 8 185h3c63-121 164-204 346-205" id="ac"/><g id="a"><use transform="matrix(0.010850694444444444,0,0,0.010850694444444444,0,0)" xlink:href="#X"/><use transform="matrix(0.010850694444444444,0,0,0.010850694444444444,13.335503472222221,0)" xlink:href="#Y"/><use transform="matrix(0.010850694444444444,0,0,0.010850694444444444,26.671006944444443,0)" xlink:href="#Z"/><use transform="matrix(0.010850694444444444,0,0,0.010850694444444444,40.006510416666664,0)" xlink:href="#aa"/><use transform="matrix(0.010850694444444444,0,0,0.010850694444444444,53.342013888888886,0)" xlink:href="#ab"/><use transform="matrix(0.010850694444444444,0,0,0.010850694444444444,66.67751736111111,0)" xlink:href="#ac"/></g><path d="M698-1104c312 3 392 244 392 558 0 315-82 566-392 566-169 0-277-65-331-184h-5c8 188 2 394 4 589H185V-858c0-76-1-156-6-224h175c6 52 9 120 10 178h4c58-122 150-202 330-200zm-49 991c225 0 255-203 255-433 0-225-32-419-253-419-236 0-285 192-285 441 0 237 53 411 283 411" id="ad"/><path d="M839-1102c70 0 148 7 206 17v167c-112-18-268-36-363 15-129 69-208 203-208 395V0H294c-10-367 32-789-52-1082h171c21 75 41 161 48 250h5c67-152 152-270 373-270" id="ae"/><path d="M1048-32c-2 300-135 456-433 456-222-1-358-88-400-267l184-25c22 99 100 157 222 156 184-2 248-125 248-315 0-64 3-133-2-194C807-100 706-13 524-12c-306 0-381-228-381-537 0-318 85-550 400-550 164 0 271 83 325 202h3c1-60 3-134 12-185h171c-13 339-4 702-6 1050zM585-145c210-8 284-178 284-406 0-192-52-331-177-392-33-16-69-22-104-22-223 2-259 184-259 414 0 229 31 415 256 406" id="af"/><path d="M1000-272c3 95 12 159 101 161 21 0 41-3 59-7V-6c-44 10-86 16-139 16-141 2-191-84-197-217h-6C748-76 648 20 446 20c-207 0-318-120-318-322 0-266 194-348 454-354l236-4c12-191-40-305-222-305-140 0-220 47-232 172l-188-17c33-204 181-292 423-292 255 0 401 118 401 364v466zm-683-27c0 109 63 184 175 182 166-3 259-96 306-217 24-65 20-120 20-200-232 7-501-28-501 235" id="ag"/><path d="M904-1102c199 0 220 177 220 381V0H956v-686c-3-114 0-215-60-264-70-33-125-4-158 71-26 56-39 140-39 252V0H531v-686c-3-114-1-215-61-264-78-41-136 24-157 84-24 69-39 159-39 259V0H105c-3-360 6-732-6-1082h149c6 50 3 123 8 175 36-100 83-195 216-195 135 0 166 79 196 196 42-105 93-196 236-196" id="ah"/><g id="b"><use transform="matrix(0.010850694444444444,0,0,0.010850694444444444,0,0)" xlink:href="#ad"/><use transform="matrix(0.010850694444444444,0,0,0.010850694444444444,13.335503472222221,0)" xlink:href="#ae"/><use transform="matrix(0.010850694444444444,0,0,0.010850694444444444,26.671006944444443,0)" xlink:href="#ab"/><use transform="matrix(0.010850694444444444,0,0,0.010850694444444444,40.006510416666664,0)" xlink:href="#af"/><use transform="matrix(0.010850694444444444,0,0,0.010850694444444444,53.342013888888886,0)" xlink:href="#ae"/><use transform="matrix(0.010850694444444444,0,0,0.010850694444444444,66.67751736111111,0)" xlink:href="#ag"/><use transform="matrix(0.010850694444444444,0,0,0.010850694444444444,80.01302083333334,0)" xlink:href="#ah"/></g><path d="M891-1484c-201 251-362 514-362 954 0 441 161 704 362 955H701C500 176 342-90 342-532c0-440 159-704 359-952h190" id="ai"/><path d="M875 0v-623H353V0H162v-1349h191v566h522v-566h191V0H875" id="aj"/><path d="M873-819c-18-114-119-146-250-146-163 0-245 50-245 151 0 151 170 148 294 185 182 54 388 94 388 320 0 240-189 325-439 329-245 4-410-69-454-268l159-31c24 133 136 168 295 165 144-2 270-31 270-171 0-164-195-160-331-202-167-52-350-87-350-299 0-218 173-315 413-313 220 2 373 77 412 260" id="ak"/><g id="c"><use transform="matrix(0.010850694444444444,0,0,0.010850694444444444,0,0)" xlink:href="#ai"/><use transform="matrix(0.010850694444444444,0,0,0.010850694444444444,13.335503472222221,0)" xlink:href="#aj"/><use transform="matrix(0.010850694444444444,0,0,0.010850694444444444,26.671006944444443,0)" xlink:href="#ab"/><use transform="matrix(0.010850694444444444,0,0,0.010850694444444444,40.006510416666664,0)" xlink:href="#ak"/><use transform="matrix(0.010850694444444444,0,0,0.010850694444444444,53.342013888888886,0)" xlink:href="#Z"/></g><path d="M650-1214c-281 0-336 244-336 533 0 295 60 546 347 546 188 0 263-142 322-282l159 65C1058-155 935 20 659 20c-401 0-546-295-546-701 0-407 135-689 536-689 264 0 391 146 466 335l-168 65c-47-129-127-244-297-244" id="al"/><path d="M528-1484c201 248 357 511 357 952 0 442-156 709-357 957H336C537 174 700-89 700-530c0-440-163-703-364-954h192" id="am"/><g id="d"><use transform="matrix(0.010850694444444444,0,0,0.010850694444444444,0,0)" xlink:href="#X"/><use transform="matrix(0.010850694444444444,0,0,0.010850694444444444,13.335503472222221,0)" xlink:href="#al"/><use transform="matrix(0.010850694444444444,0,0,0.010850694444444444,26.671006944444443,0)" xlink:href="#am"/></g><path d="M604-135c236 0 291-142 291-376v-838h190v859c5 340-142 510-480 510-326 0-463-164-463-492v-877h191v851c-3 222 46 363 271 363" id="an"/><path d="M1034 0L896-382H333L196 0H0l510-1349h217L1228 0h-194zM847-531c-77-225-157-447-231-674-69 231-154 451-232 674h463" id="ao"/><path d="M1121-976c0 225-142 341-344 379L1177 0H957L591-575H353V0H162v-1349h482c281 3 477 100 477 373zM633-726c181-1 296-73 296-247 0-149-101-223-304-223H353v470h280" id="ap"/><path d="M709-1193V0H519v-1193H76v-156h1076v156H709" id="aq"/><g id="e"><use transform="matrix(0.010850694444444444,0,0,0.010850694444444444,0,0)" xlink:href="#an"/><use transform="matrix(0.010850694444444444,0,0,0.010850694444444444,13.335503472222221,0)" xlink:href="#ao"/><use transform="matrix(0.010850694444444444,0,0,0.010850694444444444,26.671006944444443,0)" xlink:href="#ap"/><use transform="matrix(0.010850694444444444,0,0,0.010850694444444444,40.006510416666664,0)" xlink:href="#aq"/></g><path d="M617-1102c355 0 481 238 477 599H322c5 222 84 388 301 388 144 0 244-59 284-166l158 45C1002-72 854 20 623 20c-342 0-490-220-490-568 0-346 151-554 484-554zm291 461c-18-192-90-328-289-328-194 0-287 128-295 328h584" id="ar"/><path d="M865-914c-3-187-2-380-2-570h180v1261c0 76 1 155 6 223H877c-8-49-9-116-10-174h-5C801-44 708 26 530 26c-135 0-234-46-297-139s-95-232-95-419c0-377 131-566 392-566 176 0 271 63 335 184zm-286-51c-222 0-255 197-255 427 0 229 31 425 253 425 237 0 286-195 286-441 0-238-52-411-284-411" id="as"/><path d="M745-142h380V0H143v-142h422v-798H246v-142h499v940zM545-1292v-192h200v192H545" id="at"/><path d="M736-142h380V0H134v-142h422v-1200H267v-142h469v1342" id="au"/><g id="f"><use transform="matrix(0.010850694444444444,0,0,0.010850694444444444,0,0)" xlink:href="#aj"/><use transform="matrix(0.010850694444444444,0,0,0.010850694444444444,13.335503472222221,0)" xlink:href="#ar"/><use transform="matrix(0.010850694444444444,0,0,0.010850694444444444,26.671006944444443,0)" xlink:href="#ag"/><use transform="matrix(0.010850694444444444,0,0,0.010850694444444444,40.006510416666664,0)" xlink:href="#as"/><use transform="matrix(0.010850694444444444,0,0,0.010850694444444444,53.342013888888886,0)" xlink:href="#ak"/><use transform="matrix(0.010850694444444444,0,0,0.010850694444444444,66.67751736111111,0)" xlink:href="#ag"/><use transform="matrix(0.010850694444444444,0,0,0.010850694444444444,80.01302083333334,0)" xlink:href="#at"/><use transform="matrix(0.010850694444444444,0,0,0.010850694444444444,93.34852430555557,0)" xlink:href="#au"/></g><path d="M614-1226c-167 1-283 53-283 213 0 183 186 193 334 234 230 63 463 120 463 409 0 286-219 387-518 390C309 23 131-98 79-338l185-37c34 165 149 248 351 246 184-2 324-58 324-238 0-203-207-221-372-266-210-57-422-111-422-377 0-267 201-356 470-360 279-5 430 101 480 324l-188 33c-28-141-121-215-293-213" id="av"/><path d="M202-1349h823v156H709v1037h316V0H202v-156h316v-1037H202v-156" id="aw"/><g id="g"><use transform="matrix(0.010850694444444444,0,0,0.010850694444444444,0,0)" xlink:href="#ai"/><use transform="matrix(0.010850694444444444,0,0,0.010850694444444444,13.335503472222221,0)" xlink:href="#ao"/><use transform="matrix(0.010850694444444444,0,0,0.010850694444444444,26.671006944444443,0)" xlink:href="#av"/><use transform="matrix(0.010850694444444444,0,0,0.010850694444444444,40.006510416666664,0)" xlink:href="#aw"/><use transform="matrix(0.010850694444444444,0,0,0.010850694444444444,53.342013888888886,0)" xlink:href="#al"/><use transform="matrix(0.010850694444444444,0,0,0.010850694444444444,66.67751736111111,0)" xlink:href="#am"/></g><path d="M528 20c-247 0-343-132-343-381v-721h180v686c-4 177 45 284 224 277 194-8 279-136 279-336v-627h181c3 360-6 732 6 1082H885c-4-54-7-126-8-185h-3C809-64 714 20 528 20" id="ax"/><g id="h"><use transform="matrix(0.010850694444444444,0,0,0.010850694444444444,0,0)" xlink:href="#ap"/><use transform="matrix(0.010850694444444444,0,0,0.010850694444444444,13.335503472222221,0)" xlink:href="#ax"/><use transform="matrix(0.010850694444444444,0,0,0.010850694444444444,26.671006944444443,0)" xlink:href="#ac"/><use transform="matrix(0.010850694444444444,0,0,0.010850694444444444,40.006510416666664,0)" xlink:href="#Z"/><use transform="matrix(0.010850694444444444,0,0,0.010850694444444444,53.342013888888886,0)" xlink:href="#at"/><use transform="matrix(0.010850694444444444,0,0,0.010850694444444444,66.67751736111111,0)" xlink:href="#ah"/><use transform="matrix(0.010850694444444444,0,0,0.010850694444444444,80.01302083333334,0)" xlink:href="#ar"/></g><g id="i"><use transform="matrix(0.010850694444444444,0,0,0.010850694444444444,0,0)" xlink:href="#X"/><use transform="matrix(0.010850694444444444,0,0,0.010850694444444444,13.335503472222221,0)" xlink:href="#ae"/><use transform="matrix(0.010850694444444444,0,0,0.010850694444444444,26.671006944444443,0)" xlink:href="#ab"/><use transform="matrix(0.010850694444444444,0,0,0.010850694444444444,40.006510416666664,0)" xlink:href="#af"/><use transform="matrix(0.010850694444444444,0,0,0.010850694444444444,53.342013888888886,0)" xlink:href="#ae"/><use transform="matrix(0.010850694444444444,0,0,0.010850694444444444,66.67751736111111,0)" xlink:href="#ag"/><use transform="matrix(0.010850694444444444,0,0,0.010850694444444444,80.01302083333334,0)" xlink:href="#ah"/></g><g id="j"><use transform="matrix(0.010850694444444444,0,0,0.010850694444444444,0,0)" xlink:href="#ai"/><use transform="matrix(0.010850694444444444,0,0,0.010850694444444444,13.335503472222221,0)" xlink:href="#aj"/><use transform="matrix(0.010850694444444444,0,0,0.010850694444444444,26.671006944444443,0)" xlink:href="#X"/><use transform="matrix(0.010850694444444444,0,0,0.010850694444444444,40.006510416666664,0)" xlink:href="#al"/><use transform="matrix(0.010850694444444444,0,0,0.010850694444444444,53.342013888888886,0)" xlink:href="#am"/></g><path d="M713 0H515L10-1349h201C345-955 498-579 615-168c116-411 269-787 402-1181h201" id="ay"/><path d="M285-1169c8 382 2 780 4 1169H129v-1349h237c86 239 188 461 253 720 69-258 169-481 255-720h225V0H937c2-390-5-788 6-1169-75 255-170 488-259 729H547c-90-240-185-475-262-729" id="az"/><g id="k"><use transform="matrix(0.010850694444444444,0,0,0.010850694444444444,0,0)" xlink:href="#aq"/><use transform="matrix(0.010850694444444444,0,0,0.010850694444444444,13.335503472222221,0)" xlink:href="#ay"/><use transform="matrix(0.010850694444444444,0,0,0.010850694444444444,26.671006944444443,0)" xlink:href="#az"/></g><path d="M102-681c0-398 126-689 513-689 165 0 291 58 379 174s132 287 132 515c-1 318-88 554-298 657-123 61-317 58-438-3-206-104-288-341-288-654zm749 406c94-160 97-656-5-807-57-85-130-132-231-132-104 0-178 47-234 132-101 153-99 655 1 809 57 89 130 138 232 138 109 0 184-49 237-140" id="aA"/><g id="l"><use transform="matrix(0.010850694444444444,0,0,0.010850694444444444,0,0)" xlink:href="#ao"/><use transform="matrix(0.010850694444444444,0,0,0.010850694444444444,13.335503472222221,0)" xlink:href="#aA"/><use transform="matrix(0.010850694444444444,0,0,0.010850694444444444,26.671006944444443,0)" xlink:href="#aq"/></g><g id="m"><use transform="matrix(0.010850694444444444,0,0,0.010850694444444444,0,0)" xlink:href="#ap"/><use transform="matrix(0.010850694444444444,0,0,0.010850694444444444,13.335503472222221,0)" xlink:href="#ax"/><use transform="matrix(0.010850694444444444,0,0,0.010850694444444444,26.671006944444443,0)" xlink:href="#ac"/><use transform="matrix(0.010850694444444444,0,0,0.010850694444444444,40.006510416666664,0)" xlink:href="#Z"/><use transform="matrix(0.010850694444444444,0,0,0.010850694444444444,53.342013888888886,0)" xlink:href="#at"/><use transform="matrix(0.010850694444444444,0,0,0.010850694444444444,66.67751736111111,0)" xlink:href="#ah"/><use transform="matrix(0.010850694444444444,0,0,0.010850694444444444,80.01302083333334,0)" xlink:href="#ar"/></g><path d="M473-1349c438-1 655 221 652 661C1122-268 945-8 532 0H162v-1349h311zm42 1193c308-4 416-205 418-532 2-330-131-509-459-505H353v1037h162" id="aB"/><g id="n"><use transform="matrix(0.010850694444444444,0,0,0.010850694444444444,0,0)" xlink:href="#aB"/><use transform="matrix(0.010850694444444444,0,0,0.010850694444444444,13.335503472222221,0)" xlink:href="#ar"/><use transform="matrix(0.010850694444444444,0,0,0.010850694444444444,26.671006944444443,0)" xlink:href="#ar"/><use transform="matrix(0.010850694444444444,0,0,0.010850694444444444,40.006510416666664,0)" xlink:href="#ad"/></g><path d="M237 0v-1349h191v1193h672V0H237" id="aC"/><g id="o"><use transform="matrix(0.010850694444444444,0,0,0.010850694444444444,0,0)" xlink:href="#aC"/><use transform="matrix(0.010850694444444444,0,0,0.010850694444444444,13.335503472222221,0)" xlink:href="#ar"/><use transform="matrix(0.010850694444444444,0,0,0.010850694444444444,26.671006944444443,0)" xlink:href="#ag"/><use transform="matrix(0.010850694444444444,0,0,0.010850694444444444,40.006510416666664,0)" xlink:href="#ae"/><use transform="matrix(0.010850694444444444,0,0,0.010850694444444444,53.342013888888886,0)" xlink:href="#ac"/><use transform="matrix(0.010850694444444444,0,0,0.010850694444444444,66.67751736111111,0)" xlink:href="#at"/><use transform="matrix(0.010850694444444444,0,0,0.010850694444444444,80.01302083333334,0)" xlink:href="#ac"/><use transform="matrix(0.010850694444444444,0,0,0.010850694444444444,93.34852430555557,0)" xlink:href="#af"/></g><path d="M631 20c-350 0-501-215-501-562 0-355 162-560 502-560 250 0 399 118 446 323l-192 14c-23-124-109-196-262-196-242 0-305 171-305 415 1 245 61 427 304 427 151 0 248-77 267-215l190 12C1039-107 883 20 631 20" id="aD"/><g id="p"><use transform="matrix(0.010850694444444444,0,0,0.010850694444444444,0,0)" xlink:href="#ao"/><use transform="matrix(0.010850694444444444,0,0,0.010850694444444444,13.335503472222221,0)" xlink:href="#aD"/><use transform="matrix(0.010850694444444444,0,0,0.010850694444444444,26.671006944444443,0)" xlink:href="#aD"/><use transform="matrix(0.010850694444444444,0,0,0.010850694444444444,40.006510416666664,0)" xlink:href="#ar"/><use transform="matrix(0.010850694444444444,0,0,0.010850694444444444,53.342013888888886,0)" xlink:href="#au"/><use transform="matrix(0.010850694444444444,0,0,0.010850694444444444,66.67751736111111,0)" xlink:href="#ar"/><use transform="matrix(0.010850694444444444,0,0,0.010850694444444444,80.01302083333334,0)" xlink:href="#ae"/><use transform="matrix(0.010850694444444444,0,0,0.010850694444444444,93.34852430555557,0)" xlink:href="#ag"/><use transform="matrix(0.010850694444444444,0,0,0.010850694444444444,106.6840277777778,0)" xlink:href="#Z"/><use transform="matrix(0.010850694444444444,0,0,0.010850694444444444,120.01953125000003,0)" xlink:href="#ab"/><use transform="matrix(0.010850694444444444,0,0,0.010850694444444444,133.35503472222226,0)" xlink:href="#ae"/></g><g id="q"><use transform="matrix(0.010850694444444444,0,0,0.010850694444444444,0,0)" xlink:href="#ai"/><use transform="matrix(0.010850694444444444,0,0,0.010850694444444444,13.335503472222221,0)" xlink:href="#aB"/><use transform="matrix(0.010850694444444444,0,0,0.010850694444444444,26.671006944444443,0)" xlink:href="#aC"/><use transform="matrix(0.010850694444444444,0,0,0.010850694444444444,40.006510416666664,0)" xlink:href="#ao"/><use transform="matrix(0.010850694444444444,0,0,0.010850694444444444,53.342013888888886,0)" xlink:href="#am"/></g><g id="r"><use transform="matrix(0.010850694444444444,0,0,0.010850694444444444,0,0)" xlink:href="#aC"/><use transform="matrix(0.010850694444444444,0,0,0.010850694444444444,13.335503472222221,0)" xlink:href="#ab"/><use transform="matrix(0.010850694444444444,0,0,0.010850694444444444,26.671006944444443,0)" xlink:href="#ab"/><use transform="matrix(0.010850694444444444,0,0,0.010850694444444444,40.006510416666664,0)" xlink:href="#ad"/></g><path d="M334-464v-160h560v160H334" id="aE"/><path d="M116-154v-153l858-367-858-366v-154l995 418v205" id="aF"/><g id="s"><use transform="matrix(0.010850694444444444,0,0,0.010850694444444444,0,0)" xlink:href="#aE"/><use transform="matrix(0.010850694444444444,0,0,0.010850694444444444,13.335503472222221,0)" xlink:href="#aF"/></g><path d="M162 0v-1349h919v156H353v422h668v154H353v461h769V0H162" id="aG"/><path d="M715 0H502L69-1082h202c94 253 197 500 285 758 19 57 36 126 52 183 96-335 234-626 350-941h201" id="aH"/><g id="t"><use transform="matrix(0.010850694444444444,0,0,0.010850694444444444,0,0)" xlink:href="#aG"/><use transform="matrix(0.010850694444444444,0,0,0.010850694444444444,13.335503472222221,0)" xlink:href="#aH"/><use transform="matrix(0.010850694444444444,0,0,0.010850694444444444,26.671006944444443,0)" xlink:href="#ag"/><use transform="matrix(0.010850694444444444,0,0,0.010850694444444444,40.006510416666664,0)" xlink:href="#au"/><use transform="matrix(0.010850694444444444,0,0,0.010850694444444444,53.342013888888886,0)" xlink:href="#ax"/><use transform="matrix(0.010850694444444444,0,0,0.010850694444444444,66.67751736111111,0)" xlink:href="#ag"/><use transform="matrix(0.010850694444444444,0,0,0.010850694444444444,80.01302083333334,0)" xlink:href="#Z"/><use transform="matrix(0.010850694444444444,0,0,0.010850694444444444,93.34852430555557,0)" xlink:href="#ar"/></g><g id="u"><use transform="matrix(0.010850694444444444,0,0,0.010850694444444444,0,0)" xlink:href="#ar"/><use transform="matrix(0.010850694444444444,0,0,0.010850694444444444,13.335503472222221,0)" xlink:href="#ag"/><use transform="matrix(0.010850694444444444,0,0,0.010850694444444444,26.671006944444443,0)" xlink:href="#aD"/><use transform="matrix(0.010850694444444444,0,0,0.010850694444444444,40.006510416666664,0)" xlink:href="#aa"/></g><g id="v"><use transform="matrix(0.010850694444444444,0,0,0.010850694444444444,0,0)" xlink:href="#at"/><use transform="matrix(0.010850694444444444,0,0,0.010850694444444444,13.335503472222221,0)" xlink:href="#ac"/><use transform="matrix(0.010850694444444444,0,0,0.010850694444444444,26.671006944444443,0)" xlink:href="#ad"/><use transform="matrix(0.010850694444444444,0,0,0.010850694444444444,40.006510416666664,0)" xlink:href="#ax"/><use transform="matrix(0.010850694444444444,0,0,0.010850694444444444,53.342013888888886,0)" xlink:href="#Z"/></g><path fill="#3a414a" d="M609-1161c-125 0-218 36-218 153 0 149 166 161 290 196 235 67 484 129 484 421 0 300-239 408-554 411C302 23 93-114 38-367l285-37c32 128 131 205 296 203 143-2 259-31 259-173 0-164-197-172-333-212-218-64-441-131-441-405 0-276 231-379 511-379 299 0 463 114 513 363l-286 29c-28-115-96-183-233-183" id="aI"/><path fill="#3a414a" d="M1113-274C1038-96 884 20 626 20c-352 0-526-209-526-566 0-358 185-556 530-556 358 0 496 251 499 615H395c5 180 68 319 245 319 102 0 186-45 208-129zM857-663c-6-177-128-307-315-247-94 30-141 121-145 247h460" id="aJ"/><path fill="#3a414a" d="M768-1103c247 0 336 167 336 416V0H824v-619c-3-164-24-273-171-273-164 0-229 142-229 312V0H143c-4-359 9-736-8-1082h268c7 63 12 146 13 215h4c67-145 160-236 348-236" id="aK"/><path fill="#3a414a" d="M802-909c-3-189-2-383-2-575h281v1248c-1 83 4 168 8 236H817c-9-50-14-117-15-176h-4C735-49 651 20 482 20 191 20 97-238 97-539c0-243 66-432 221-519 50-28 108-42 175-42 162 2 253 78 309 191zm-70 658c91-113 93-462 2-584-46-61-145-100-224-53-96 56-119 190-120 349 0 123 17 214 52 275 46 82 130 115 222 74 25-12 46-33 68-61" id="aL"/><g id="w"><use transform="matrix(0.008677625575057506,0,0,0.008677625575057506,0,0)" xlink:href="#aI"/><use transform="matrix(0.008677625575057506,0,0,0.008677625575057506,10.664801831745676,0)" xlink:href="#aJ"/><use transform="matrix(0.008677625575057506,0,0,0.008677625575057506,21.32960366349135,0)" xlink:href="#aK"/><use transform="matrix(0.008677625575057506,0,0,0.008677625575057506,31.994405495237025,0)" xlink:href="#aL"/></g><path fill="#3a414a" d="M775-193C708-75 621 20 439 20 226 20 106-93 106-306c0-251 170-341 417-346l223-4c4-143-12-264-148-264-103 0-141 58-150 153l-293-14c37-219 194-321 455-321 263 0 418 130 417 390v392c1 84 5 161 89 160 21 0 42-2 62-6v152c-57 15-108 27-180 26-145 0-202-73-217-205h-6zm-256 17c168 0 234-139 227-325-166 4-347-25-347 173 0 94 33 152 120 152" id="aM"/><path fill="#3a414a" d="M711 13c-250 0-386-99-385-349l2-556H161v-190h181l88-282h176v282h385v190H606v530c-10 130 45 186 174 184 91-2 176-11 255-27v186C933-1 833 13 711 13" id="aN"/><g id="x"><use transform="matrix(0.008677625575057506,0,0,0.008677625575057506,0,0)" xlink:href="#aL"/><use transform="matrix(0.008677625575057506,0,0,0.008677625575057506,10.664801831745676,0)" xlink:href="#aM"/><use transform="matrix(0.008677625575057506,0,0,0.008677625575057506,21.32960366349135,0)" xlink:href="#aN"/><use transform="matrix(0.008677625575057506,0,0,0.008677625575057506,31.994405495237025,0)" xlink:href="#aM"/></g><path fill="#3a414a" d="M762-1121V0H467v-1121H61v-228h1107v228H762" id="aO"/><path fill="#3a414a" d="M875-1102c70 0 148 7 206 17v237c-110-17-267-37-359 15-123 69-192 207-192 395V0H250c-10-367 32-789-52-1082h271c19 69 36 149 46 228h4c52-151 151-250 356-248" id="aP"/><path fill="#3a414a" d="M622-916c-112 2-200 14-200 111 0 90 89 101 168 121 234 58 514 77 514 368C1104-4 751 54 434 5 267-21 161-112 121-270l247-37c24 111 113 145 252 141 114-3 226-12 226-124 0-101-103-113-192-134-225-54-490-76-490-351 0-247 201-328 458-328 245 0 413 88 457 292l-249 26c-16-98-92-133-208-131" id="aQ"/><path fill="#3a414a" d="M934-1102c199 0 220 177 220 381V0H926c-2-260 10-533-4-785-4-72-14-138-83-138-34 0-61 27-81 81s-29 134-29 241V0H501c-2-260 9-533-5-785-4-72-13-138-82-138-46 0-65 47-80 93-21 67-30 155-30 248V0H75c-3-360 6-732-6-1082h209c6 50 3 123 8 175 36-100 83-195 216-195 135 0 166 79 196 196 42-105 93-196 236-196" id="aR"/><path fill="#3a414a" d="M794-190h353V0H118v-190h395v-702H223v-190h571v892zM513-1277v-207h281v207H513" id="aS"/><g id="y"><use transform="matrix(0.008677625575057506,0,0,0.008677625575057506,0,0)" xlink:href="#aO"/><use transform="matrix(0.008677625575057506,0,0,0.008677625575057506,10.664801831745676,0)" xlink:href="#aP"/><use transform="matrix(0.008677625575057506,0,0,0.008677625575057506,21.32960366349135,0)" xlink:href="#aM"/><use transform="matrix(0.008677625575057506,0,0,0.008677625575057506,31.994405495237025,0)" xlink:href="#aK"/><use transform="matrix(0.008677625575057506,0,0,0.008677625575057506,42.6592073269827,0)" xlink:href="#aQ"/><use transform="matrix(0.008677625575057506,0,0,0.008677625575057506,53.32400915872838,0)" xlink:href="#aR"/><use transform="matrix(0.008677625575057506,0,0,0.008677625575057506,63.98881099047406,0)" xlink:href="#aS"/><use transform="matrix(0.008677625575057506,0,0,0.008677625575057506,74.65361282221973,0)" xlink:href="#aN"/></g><path fill="#3a414a" d="M137 0v-1349h968v228H432v324h612v228H432v341h714V0H137" id="aT"/><path fill="#3a414a" d="M874 0L612-392 348 0H49l406-559-387-523h303l241 354 240-354h305L770-562 1179 0H874" id="aU"/><path fill="#3a414a" d="M1109-360C1066-122 902 20 624 20c-347 0-514-209-514-555 0-353 168-567 518-567 270 0 425 136 473 361l-283 14c-16-106-75-183-196-182-75 0-130 31-165 93s-52 152-52 270c0 249 74 374 221 374 120 0 188-82 201-201" id="aV"/><path fill="#3a414a" d="M471 20c-247 0-336-169-336-415v-687h281v607c4 148 31 285 172 285 152 0 207-150 207-312v-580h281c4 359-9 736 8 1082H816c-7-63-11-146-12-215h-5C736-76 644 20 471 20" id="aW"/><g id="z"><use transform="matrix(0.008677625575057506,0,0,0.008677625575057506,0,0)" xlink:href="#aT"/><use transform="matrix(0.008677625575057506,0,0,0.008677625575057506,10.664801831745676,0)" xlink:href="#aU"/><use transform="matrix(0.008677625575057506,0,0,0.008677625575057506,21.32960366349135,0)" xlink:href="#aJ"/><use transform="matrix(0.008677625575057506,0,0,0.008677625575057506,31.994405495237025,0)" xlink:href="#aV"/><use transform="matrix(0.008677625575057506,0,0,0.008677625575057506,42.6592073269827,0)" xlink:href="#aW"/><use transform="matrix(0.008677625575057506,0,0,0.008677625575057506,53.32400915872838,0)" xlink:href="#aN"/><use transform="matrix(0.008677625575057506,0,0,0.008677625575057506,63.98881099047406,0)" xlink:href="#aJ"/></g><path fill="#3a414a" d="M1157-949c0 209-118 316-279 368L1227 0H895L605-515H432V0H137v-1349h494c317-2 526 111 526 400zM608-744c158 1 248-51 252-193 5-207-223-184-428-183v376h176" id="aX"/><g id="A"><use transform="matrix(0.008677625575057506,0,0,0.008677625575057506,0,0)" xlink:href="#aX"/><use transform="matrix(0.008677625575057506,0,0,0.008677625575057506,10.664801831745676,0)" xlink:href="#aW"/><use transform="matrix(0.008677625575057506,0,0,0.008677625575057506,21.32960366349135,0)" xlink:href="#aK"/><use transform="matrix(0.008677625575057506,0,0,0.008677625575057506,31.994405495237025,0)" xlink:href="#aN"/><use transform="matrix(0.008677625575057506,0,0,0.008677625575057506,42.6592073269827,0)" xlink:href="#aS"/><use transform="matrix(0.008677625575057506,0,0,0.008677625575057506,53.32400915872838,0)" xlink:href="#aR"/><use transform="matrix(0.008677625575057506,0,0,0.008677625575057506,63.98881099047406,0)" xlink:href="#aJ"/></g><path fill="#3a414a" d="M616-1349c316 3 526 118 526 426 0 301-201 442-514 447H431V0H136v-1349h480zm-25 646c164 1 254-62 254-215 0-157-99-200-262-202H431v417h160" id="aY"/><path fill="#3a414a" d="M616-1102c361 0 521 202 521 560 0 354-171 562-527 562C259 20 92-192 92-542c0-351 169-560 524-560zm-9 930c200-2 236-165 236-370 0-199-27-367-223-367-195 0-233 146-233 367 0 129 18 223 55 282s92 88 165 88" id="aZ"/><path fill="#3a414a" d="M1108-33c-3 314-178 467-492 467-243 0-400-94-447-291l281-33c17 79 82 141 174 141 176 0 212-155 205-347-2-40 5-80 0-115C773-85 665-12 501-12c-288 0-377-242-377-538 0-242 65-426 223-510 50-26 108-39 175-39 160 0 253 78 307 191h5c1-58 5-125 14-174h266c-12 335-3 703-6 1049zM811-384c25-82 27-259 1-342-30-99-77-180-190-180-172 0-205 171-205 356 0 116 18 202 54 258 48 76 129 107 221 70 62-25 96-86 119-162" id="ba"/><g id="B"><use transform="matrix(0.008677625575057506,0,0,0.008677625575057506,0,0)" xlink:href="#aY"/><use transform="matrix(0.008677625575057506,0,0,0.008677625575057506,10.664801831745676,0)" xlink:href="#aP"/><use transform="matrix(0.008677625575057506,0,0,0.008677625575057506,21.32960366349135,0)" xlink:href="#aZ"/><use transform="matrix(0.008677625575057506,0,0,0.008677625575057506,31.994405495237025,0)" xlink:href="#ba"/><use transform="matrix(0.008677625575057506,0,0,0.008677625575057506,42.6592073269827,0)" xlink:href="#aP"/><use transform="matrix(0.008677625575057506,0,0,0.008677625575057506,53.32400915872838,0)" xlink:href="#aM"/><use transform="matrix(0.008677625575057506,0,0,0.008677625575057506,63.98881099047406,0)" xlink:href="#aR"/></g><path fill="#3a414a" d="M872-915c-35-112-84-223-220-223-91 0-156 41-204 116-89 137-87 550 2 688 51 79 116 122 209 122 150 0 197-126 240-244l273 52C1094-168 961 20 656 20 239 20 80-262 80-681c0-418 154-689 568-689 289 0 425 167 496 389" id="bb"/><path fill="#3a414a" d="M794-190h353V0H118v-190h395v-1104H223v-190h571v1294" id="bc"/><g id="C"><use transform="matrix(0.008677625575057506,0,0,0.008677625575057506,0,0)" xlink:href="#bb"/><use transform="matrix(0.008677625575057506,0,0,0.008677625575057506,10.664801831745676,0)" xlink:href="#aM"/><use transform="matrix(0.008677625575057506,0,0,0.008677625575057506,21.32960366349135,0)" xlink:href="#bc"/><use transform="matrix(0.008677625575057506,0,0,0.008677625575057506,31.994405495237025,0)" xlink:href="#bc"/></g><g id="D"><use transform="matrix(0.008677625575057506,0,0,0.008677625575057506,0,0)" xlink:href="#aN"/><use transform="matrix(0.008677625575057506,0,0,0.008677625575057506,10.664801831745676,0)" xlink:href="#aZ"/></g><path fill="#3a414a" d="M-5 220v-96h1238v96H-5" id="bd"/><path fill="#3a414a" d="M844-1321c-130 0-195 53-191 182v57h443v190H653V0H373v-892H117v-190h256v-83c5-247 162-348 422-349 120-1 232 13 327 28v184c-84-10-183-19-278-19" id="be"/><g id="E"><use transform="matrix(0.008677625575057506,0,0,0.008677625575057506,0,0)" xlink:href="#aP"/><use transform="matrix(0.008677625575057506,0,0,0.008677625575057506,10.664801831745676,0)" xlink:href="#aW"/><use transform="matrix(0.008677625575057506,0,0,0.008677625575057506,21.32960366349135,0)" xlink:href="#aK"/><use transform="matrix(0.008677625575057506,0,0,0.008677625575057506,31.994405495237025,0)" xlink:href="#bd"/><use transform="matrix(0.008677625575057506,0,0,0.008677625575057506,42.6592073269827,0)" xlink:href="#aS"/><use transform="matrix(0.008677625575057506,0,0,0.008677625575057506,53.32400915872838,0)" xlink:href="#aK"/><use transform="matrix(0.008677625575057506,0,0,0.008677625575057506,63.98881099047406,0)" xlink:href="#be"/><use transform="matrix(0.008677625575057506,0,0,0.008677625575057506,74.65361282221973,0)" xlink:href="#aJ"/><use transform="matrix(0.008677625575057506,0,0,0.008677625575057506,85.3184146539654,0)" xlink:href="#aP"/><use transform="matrix(0.008677625575057506,0,0,0.008677625575057506,95.98321648571108,0)" xlink:href="#aJ"/><use transform="matrix(0.008677625575057506,0,0,0.008677625575057506,106.64801831745676,0)" xlink:href="#aK"/><use transform="matrix(0.008677625575057506,0,0,0.008677625575057506,117.31282014920245,0)" xlink:href="#aV"/><use transform="matrix(0.008677625575057506,0,0,0.008677625575057506,127.97762198094811,0)" xlink:href="#aJ"/></g><path fill="#3a414a" d="M615-1370c385 0 542 273 542 691 0 230-47 404-140 522S790 20 615 20C231 20 72-262 72-679c0-419 158-691 543-691zM797-330c77-133 78-564 0-695-44-73-101-113-182-113s-139 40-183 114c-79 133-78 560 0 694 45 77 102 118 183 118s138-41 182-118" id="bf"/><g id="F"><use transform="matrix(0.008677625575057506,0,0,0.008677625575057506,0,0)" xlink:href="#bf"/><use transform="matrix(0.008677625575057506,0,0,0.008677625575057506,10.664801831745676,0)" xlink:href="#be"/><use transform="matrix(0.008677625575057506,0,0,0.008677625575057506,21.32960366349135,0)" xlink:href="#be"/><use transform="matrix(0.008677625575057506,0,0,0.008677625575057506,31.994405495237025,0)" xlink:href="#bc"/><use transform="matrix(0.008677625575057506,0,0,0.008677625575057506,42.6592073269827,0)" xlink:href="#aZ"/><use transform="matrix(0.008677625575057506,0,0,0.008677625575057506,53.32400915872838,0)" xlink:href="#aM"/><use transform="matrix(0.008677625575057506,0,0,0.008677625575057506,63.98881099047406,0)" xlink:href="#aL"/></g><path fill="#3a414a" d="M774 0H438L31-1082h297c94 290 200 568 280 872 83-304 194-581 291-872h294" id="bg"/><path fill="#3a414a" d="M135-968c34-256 187-402 480-402 217 0 371 75 441 220 45 93 40 219-8 308-114 212-348 323-508 488-38 39-66 80-85 123h654V0H123v-195c112-245 321-399 515-560 57-48 107-96 142-157 14-26 22-53 22-80-1-104-73-156-185-154-131 2-181 74-199 194" id="bh"/><path fill="#3a414a" d="M496-1349c439 0 656 222 653 664C1146-265 969 0 556 0H135v-1349h361zm36 1121c245-7 319-187 320-457 1-273-91-439-361-436h-61v893h102" id="bi"/><g id="G"><use transform="matrix(0.008677625575057506,0,0,0.008677625575057506,0,0)" xlink:href="#bb"/><use transform="matrix(0.008677625575057506,0,0,0.008677625575057506,10.664801831745676,0)" xlink:href="#aZ"/><use transform="matrix(0.008677625575057506,0,0,0.008677625575057506,21.32960366349135,0)" xlink:href="#aK"/><use transform="matrix(0.008677625575057506,0,0,0.008677625575057506,31.994405495237025,0)" xlink:href="#bg"/><use transform="matrix(0.008677625575057506,0,0,0.008677625575057506,42.6592073269827,0)" xlink:href="#bh"/><use transform="matrix(0.008677625575057506,0,0,0.008677625575057506,53.32400915872838,0)" xlink:href="#bi"/></g><path fill="#3a414a" d="M427-171c3 195 2 397 2 596H148V-846c1-83-4-168-8-236h272c10 49 14 118 15 176h4c59-114 151-197 316-197 291 0 385 259 385 560 0 243-65 433-220 521-50 28-109 42-176 42-162-2-253-78-309-191zm69-661c-91 113-92 463-1 586 46 62 145 101 225 54 96-57 118-191 119-351 0-123-18-215-53-276-46-82-128-115-220-74-25 12-48 33-70 61" id="bj"/><g id="H"><use transform="matrix(0.008677625575057506,0,0,0.008677625575057506,0,0)" xlink:href="#aZ"/><use transform="matrix(0.008677625575057506,0,0,0.008677625575057506,10.664801831745676,0)" xlink:href="#bj"/><use transform="matrix(0.008677625575057506,0,0,0.008677625575057506,21.32960366349135,0)" xlink:href="#aJ"/><use transform="matrix(0.008677625575057506,0,0,0.008677625575057506,31.994405495237025,0)" xlink:href="#aP"/><use transform="matrix(0.008677625575057506,0,0,0.008677625575057506,42.6592073269827,0)" xlink:href="#aM"/><use transform="matrix(0.008677625575057506,0,0,0.008677625575057506,53.32400915872838,0)" xlink:href="#aN"/><use transform="matrix(0.008677625575057506,0,0,0.008677625575057506,63.98881099047406,0)" xlink:href="#aS"/><use transform="matrix(0.008677625575057506,0,0,0.008677625575057506,74.65361282221973,0)" xlink:href="#aZ"/><use transform="matrix(0.008677625575057506,0,0,0.008677625575057506,85.3184146539654,0)" xlink:href="#aK"/><use transform="matrix(0.008677625575057506,0,0,0.008677625575057506,95.98321648571108,0)" xlink:href="#aQ"/></g><g id="I"><use transform="matrix(0.008677625575057506,0,0,0.008677625575057506,0,0)" xlink:href="#aX"/><use transform="matrix(0.008677625575057506,0,0,0.008677625575057506,10.664801831745676,0)" xlink:href="#aJ"/><use transform="matrix(0.008677625575057506,0,0,0.008677625575057506,21.32960366349135,0)" xlink:href="#aN"/><use transform="matrix(0.008677625575057506,0,0,0.008677625575057506,31.994405495237025,0)" xlink:href="#aW"/><use transform="matrix(0.008677625575057506,0,0,0.008677625575057506,42.6592073269827,0)" xlink:href="#aP"/><use transform="matrix(0.008677625575057506,0,0,0.008677625575057506,53.32400915872838,0)" xlink:href="#aK"/></g><g id="J"><use transform="matrix(0.008677625575057506,0,0,0.008677625575057506,0,0)" xlink:href="#aP"/><use transform="matrix(0.008677625575057506,0,0,0.008677625575057506,10.664801831745676,0)" xlink:href="#aJ"/><use transform="matrix(0.008677625575057506,0,0,0.008677625575057506,21.32960366349135,0)" xlink:href="#aQ"/><use transform="matrix(0.008677625575057506,0,0,0.008677625575057506,31.994405495237025,0)" xlink:href="#aW"/><use transform="matrix(0.008677625575057506,0,0,0.008677625575057506,42.6592073269827,0)" xlink:href="#bc"/><use transform="matrix(0.008677625575057506,0,0,0.008677625575057506,53.32400915872838,0)" xlink:href="#aN"/><use transform="matrix(0.008677625575057506,0,0,0.008677625575057506,63.98881099047406,0)" xlink:href="#aQ"/></g><g id="K"><use transform="matrix(0.008677625575057506,0,0,0.008677625575057506,0,0)" xlink:href="#aS"/><use transform="matrix(0.008677625575057506,0,0,0.008677625575057506,10.664801831745676,0)" xlink:href="#aK"/><use transform="matrix(0.008677625575057506,0,0,0.008677625575057506,21.32960366349135,0)" xlink:href="#be"/><use transform="matrix(0.008677625575057506,0,0,0.008677625575057506,31.994405495237025,0)" xlink:href="#aJ"/><use transform="matrix(0.008677625575057506,0,0,0.008677625575057506,42.6592073269827,0)" xlink:href="#aP"/><use transform="matrix(0.008677625575057506,0,0,0.008677625575057506,53.32400915872838,0)" xlink:href="#aJ"/><use transform="matrix(0.008677625575057506,0,0,0.008677625575057506,63.98881099047406,0)" xlink:href="#aK"/><use transform="matrix(0.008677625575057506,0,0,0.008677625575057506,74.65361282221973,0)" xlink:href="#aV"/><use transform="matrix(0.008677625575057506,0,0,0.008677625575057506,85.3184146539654,0)" xlink:href="#aJ"/></g><g id="L"><use transform="matrix(0.008677625575057506,0,0,0.008677625575057506,0,0)" xlink:href="#aP"/><use transform="matrix(0.008677625575057506,0,0,0.008677625575057506,10.664801831745676,0)" xlink:href="#aJ"/><use transform="matrix(0.008677625575057506,0,0,0.008677625575057506,21.32960366349135,0)" xlink:href="#aQ"/><use transform="matrix(0.008677625575057506,0,0,0.008677625575057506,31.994405495237025,0)" xlink:href="#aW"/><use transform="matrix(0.008677625575057506,0,0,0.008677625575057506,42.6592073269827,0)" xlink:href="#bc"/><use transform="matrix(0.008677625575057506,0,0,0.008677625575057506,53.32400915872838,0)" xlink:href="#aN"/><use transform="matrix(0.008677625575057506,0,0,0.008677625575057506,63.98881099047406,0)" xlink:href="#aQ"/></g><path fill="#3a414a" d="M429-1484c1 190-1 388 0 572 54-116 155-191 317-191 300 0 386 257 386 563 0 241-73 429-226 518-49 28-106 42-169 42-162 0-251-81-306-196h-4c-1 59-5 127-15 176H140c4-67 9-153 8-236v-1248h281zm66 648c-93 114-92 466 1 585 35 45 77 79 142 79 64 0 112-31 148-92 69-115 68-440-2-561-39-68-131-111-221-70-25 11-46 32-68 59" id="bk"/><path fill="#3a414a" d="M864 0L575-490l-121 84V0H173v-1484h281v850l386-448h302L762-660 1171 0H864" id="bl"/><g id="M"><use transform="matrix(0.008677625575057506,0,0,0.008677625575057506,0,0)" xlink:href="#bk"/><use transform="matrix(0.008677625575057506,0,0,0.008677625575057506,10.664801831745676,0)" xlink:href="#aM"/><use transform="matrix(0.008677625575057506,0,0,0.008677625575057506,21.32960366349135,0)" xlink:href="#aV"/><use transform="matrix(0.008677625575057506,0,0,0.008677625575057506,31.994405495237025,0)" xlink:href="#bl"/></g><g id="N"><use transform="matrix(0.008677625575057506,0,0,0.008677625575057506,0,0)" xlink:href="#aP"/><use transform="matrix(0.008677625575057506,0,0,0.008677625575057506,10.664801831745676,0)" xlink:href="#aJ"/><use transform="matrix(0.008677625575057506,0,0,0.008677625575057506,21.32960366349135,0)" xlink:href="#aQ"/><use transform="matrix(0.008677625575057506,0,0,0.008677625575057506,31.994405495237025,0)" xlink:href="#aW"/><use transform="matrix(0.008677625575057506,0,0,0.008677625575057506,42.6592073269827,0)" xlink:href="#bc"/><use transform="matrix(0.008677625575057506,0,0,0.008677625575057506,53.32400915872838,0)" xlink:href="#aN"/><use transform="matrix(0.008677625575057506,0,0,0.008677625575057506,63.98881099047406,0)" xlink:href="#aQ"/></g><g id="O"><use transform="matrix(0.008677625575057506,0,0,0.008677625575057506,0,0)" xlink:href="#aX"/><use transform="matrix(0.008677625575057506,0,0,0.008677625575057506,10.664801831745676,0)" xlink:href="#aJ"/><use transform="matrix(0.008677625575057506,0,0,0.008677625575057506,21.32960366349135,0)" xlink:href="#aV"/><use transform="matrix(0.008677625575057506,0,0,0.008677625575057506,31.994405495237025,0)" xlink:href="#aJ"/><use transform="matrix(0.008677625575057506,0,0,0.008677625575057506,42.6592073269827,0)" xlink:href="#aS"/><use transform="matrix(0.008677625575057506,0,0,0.008677625575057506,53.32400915872838,0)" xlink:href="#bg"/><use transform="matrix(0.008677625575057506,0,0,0.008677625575057506,63.98881099047406,0)" xlink:href="#aJ"/></g><g id="P"><use transform="matrix(0.008677625575057506,0,0,0.008677625575057506,0,0)" xlink:href="#aT"/><use transform="matrix(0.008677625575057506,0,0,0.008677625575057506,10.664801831745676,0)" xlink:href="#bg"/><use transform="matrix(0.008677625575057506,0,0,0.008677625575057506,21.32960366349135,0)" xlink:href="#aM"/><use transform="matrix(0.008677625575057506,0,0,0.008677625575057506,31.994405495237025,0)" xlink:href="#bc"/><use transform="matrix(0.008677625575057506,0,0,0.008677625575057506,42.6592073269827,0)" xlink:href="#aW"/><use transform="matrix(0.008677625575057506,0,0,0.008677625575057506,53.32400915872838,0)" xlink:href="#aM"/><use transform="matrix(0.008677625575057506,0,0,0.008677625575057506,63.98881099047406,0)" xlink:href="#aN"/><use transform="matrix(0.008677625575057506,0,0,0.008677625575057506,74.65361282221973,0)" xlink:href="#aJ"/></g><path fill="#3a414a" d="M143 212c82 12 185 12 233-31 50-45 83-117 110-192L38-1082h297c100 284 211 557 291 861 72-305 176-578 270-861h294L742 57c-80 192-156 368-417 368-60 0-131-4-182-13V212" id="bm"/><g id="Q"><use transform="matrix(0.008677625575057506,0,0,0.008677625575057506,0,0)" xlink:href="#aM"/><use transform="matrix(0.008677625575057506,0,0,0.008677625575057506,10.664801831745676,0)" xlink:href="#aV"/><use transform="matrix(0.008677625575057506,0,0,0.008677625575057506,21.32960366349135,0)" xlink:href="#aV"/><use transform="matrix(0.008677625575057506,0,0,0.008677625575057506,31.994405495237025,0)" xlink:href="#aW"/><use transform="matrix(0.008677625575057506,0,0,0.008677625575057506,42.6592073269827,0)" xlink:href="#aP"/><use transform="matrix(0.008677625575057506,0,0,0.008677625575057506,53.32400915872838,0)" xlink:href="#aM"/><use transform="matrix(0.008677625575057506,0,0,0.008677625575057506,63.98881099047406,0)" xlink:href="#aV"/><use transform="matrix(0.008677625575057506,0,0,0.008677625575057506,74.65361282221973,0)" xlink:href="#bm"/></g><path fill="#333" d="M1157-949c0 209-118 316-279 368L1227 0H895L605-515H432V0H137v-1349h494c317-2 526 111 526 400zM608-744c158 1 248-51 252-193 5-207-223-184-428-183v376h176" id="bn"/><path fill="#333" d="M471 20c-247 0-336-169-336-415v-687h281v607c4 148 31 285 172 285 152 0 207-150 207-312v-580h281c4 359-9 736 8 1082H816c-7-63-11-146-12-215h-5C736-76 644 20 471 20" id="bo"/><path fill="#333" d="M768-1103c247 0 336 167 336 416V0H824v-619c-3-164-24-273-171-273-164 0-229 142-229 312V0H143c-4-359 9-736-8-1082h268c7 63 12 146 13 215h4c67-145 160-236 348-236" id="bp"/><g id="R"><use transform="matrix(0.008680555555555556,0,0,0.008680555555555556,0,0)" xlink:href="#bn"/><use transform="matrix(0.008680555555555556,0,0,0.008680555555555556,10.668402777777779,0)" xlink:href="#bo"/><use transform="matrix(0.008680555555555556,0,0,0.008680555555555556,21.336805555555557,0)" xlink:href="#bp"/></g><path fill="#333" d="M794-190h353V0H118v-190h395v-702H223v-190h571v892zM513-1277v-207h281v207H513" id="bq"/><path fill="#333" d="M844-1321c-130 0-195 53-191 182v57h443v190H653V0H373v-892H117v-190h256v-83c5-247 162-348 422-349 120-1 232 13 327 28v184c-84-10-183-19-278-19" id="br"/><path fill="#333" d="M1113-274C1038-96 884 20 626 20c-352 0-526-209-526-566 0-358 185-556 530-556 358 0 496 251 499 615H395c5 180 68 319 245 319 102 0 186-45 208-129zM857-663c-6-177-128-307-315-247-94 30-141 121-145 247h460" id="bs"/><path fill="#333" d="M875-1102c70 0 148 7 206 17v237c-110-17-267-37-359 15-123 69-192 207-192 395V0H250c-10-367 32-789-52-1082h271c19 69 36 149 46 228h4c52-151 151-250 356-248" id="bt"/><path fill="#333" d="M1109-360C1066-122 902 20 624 20c-347 0-514-209-514-555 0-353 168-567 518-567 270 0 425 136 473 361l-283 14c-16-106-75-183-196-182-75 0-130 31-165 93s-52 152-52 270c0 249 74 374 221 374 120 0 188-82 201-201" id="bu"/><g id="S"><use transform="matrix(0.008680555555555556,0,0,0.008680555555555556,0,0)" xlink:href="#bq"/><use transform="matrix(0.008680555555555556,0,0,0.008680555555555556,10.668402777777779,0)" xlink:href="#bp"/><use transform="matrix(0.008680555555555556,0,0,0.008680555555555556,21.336805555555557,0)" xlink:href="#br"/><use transform="matrix(0.008680555555555556,0,0,0.008680555555555556,32.005208333333336,0)" xlink:href="#bs"/><use transform="matrix(0.008680555555555556,0,0,0.008680555555555556,42.673611111111114,0)" xlink:href="#bt"/><use transform="matrix(0.008680555555555556,0,0,0.008680555555555556,53.34201388888889,0)" xlink:href="#bs"/><use transform="matrix(0.008680555555555556,0,0,0.008680555555555556,64.01041666666667,0)" xlink:href="#bp"/><use transform="matrix(0.008680555555555556,0,0,0.008680555555555556,74.67881944444446,0)" xlink:href="#bu"/><use transform="matrix(0.008680555555555556,0,0,0.008680555555555556,85.34722222222223,0)" xlink:href="#bs"/></g><path fill="#333" d="M609-1161c-125 0-218 36-218 153 0 149 166 161 290 196 235 67 484 129 484 421 0 300-239 408-554 411C302 23 93-114 38-367l285-37c32 128 131 205 296 203 143-2 259-31 259-173 0-164-197-172-333-212-218-64-441-131-441-405 0-276 231-379 511-379 299 0 463 114 513 363l-286 29c-28-115-96-183-233-183" id="bv"/><path fill="#333" d="M711 13c-250 0-386-99-385-349l2-556H161v-190h181l88-282h176v282h385v190H606v530c-10 130 45 186 174 184 91-2 176-11 255-27v186C933-1 833 13 711 13" id="bw"/><g id="T"><use transform="matrix(0.008680555555555556,0,0,0.008680555555555556,0,0)" xlink:href="#bv"/><use transform="matrix(0.008680555555555556,0,0,0.008680555555555556,10.668402777777779,0)" xlink:href="#bs"/><use transform="matrix(0.008680555555555556,0,0,0.008680555555555556,21.336805555555557,0)" xlink:href="#bw"/></g><path fill="#333" d="M427-171c3 195 2 397 2 596H148V-846c1-83-4-168-8-236h272c10 49 14 118 15 176h4c59-114 151-197 316-197 291 0 385 259 385 560 0 243-65 433-220 521-50 28-109 42-176 42-162-2-253-78-309-191zm69-661c-91 113-92 463-1 586 46 62 145 101 225 54 96-57 118-191 119-351 0-123-18-215-53-276-46-82-128-115-220-74-25 12-48 33-70 61" id="bx"/><path fill="#333" d="M622-916c-112 2-200 14-200 111 0 90 89 101 168 121 234 58 514 77 514 368C1104-4 751 54 434 5 267-21 161-112 121-270l247-37c24 111 113 145 252 141 114-3 226-12 226-124 0-101-103-113-192-134-225-54-490-76-490-351 0-247 201-328 458-328 245 0 413 88 457 292l-249 26c-16-98-92-133-208-131" id="by"/><g id="U"><use transform="matrix(0.008680555555555556,0,0,0.008680555555555556,0,0)" xlink:href="#bq"/><use transform="matrix(0.008680555555555556,0,0,0.008680555555555556,10.668402777777779,0)" xlink:href="#bp"/><use transform="matrix(0.008680555555555556,0,0,0.008680555555555556,21.336805555555557,0)" xlink:href="#bx"/><use transform="matrix(0.008680555555555556,0,0,0.008680555555555556,32.005208333333336,0)" xlink:href="#bo"/><use transform="matrix(0.008680555555555556,0,0,0.008680555555555556,42.673611111111114,0)" xlink:href="#bw"/><use transform="matrix(0.008680555555555556,0,0,0.008680555555555556,53.34201388888889,0)" xlink:href="#by"/></g><path fill="#333" d="M775-193C708-75 621 20 439 20 226 20 106-93 106-306c0-251 170-341 417-346l223-4c4-143-12-264-148-264-103 0-141 58-150 153l-293-14c37-219 194-321 455-321 263 0 418 130 417 390v392c1 84 5 161 89 160 21 0 42-2 62-6v152c-57 15-108 27-180 26-145 0-202-73-217-205h-6zm-256 17c168 0 234-139 227-325-166 4-347-25-347 173 0 94 33 152 120 152" id="bz"/><path fill="#333" d="M802-909c-3-189-2-383-2-575h281v1248c-1 83 4 168 8 236H817c-9-50-14-117-15-176h-4C735-49 651 20 482 20 191 20 97-238 97-539c0-243 66-432 221-519 50-28 108-42 175-42 162 2 253 78 309 191zm-70 658c91-113 93-462 2-584-46-61-145-100-224-53-96 56-119 190-120 349 0 123 17 214 52 275 46 82 130 115 222 74 25-12 46-33 68-61" id="bA"/><g id="V"><use transform="matrix(0.008680555555555556,0,0,0.008680555555555556,0,0)" xlink:href="#bz"/><use transform="matrix(0.008680555555555556,0,0,0.008680555555555556,10.668402777777779,0)" xlink:href="#bp"/><use transform="matrix(0.008680555555555556,0,0,0.008680555555555556,21.336805555555557,0)" xlink:href="#bA"/></g><path fill="#333" d="M616-1102c361 0 521 202 521 560 0 354-171 562-527 562C259 20 92-192 92-542c0-351 169-560 524-560zm-9 930c200-2 236-165 236-370 0-199-27-367-223-367-195 0-233 146-233 367 0 129 18 223 55 282s92 88 165 88" id="bB"/><g id="W"><use transform="matrix(0.008680555555555556,0,0,0.008680555555555556,0,0)" xlink:href="#bB"/><use transform="matrix(0.008680555555555556,0,0,0.008680555555555556,10.668402777777779,0)" xlink:href="#bo"/><use transform="matrix(0.008680555555555556,0,0,0.008680555555555556,21.336805555555557,0)" xlink:href="#bw"/><use transform="matrix(0.008680555555555556,0,0,0.008680555555555556,32.005208333333336,0)" xlink:href="#bx"/><use transform="matrix(0.008680555555555556,0,0,0.008680555555555556,42.673611111111114,0)" xlink:href="#bo"/><use transform="matrix(0.008680555555555556,0,0,0.008680555555555556,53.34201388888889,0)" xlink:href="#bw"/><use transform="matrix(0.008680555555555556,0,0,0.008680555555555556,64.01041666666667,0)" xlink:href="#by"/></g></defs></g></svg>